<svg xmlns="http://www.w3.org/2000/svg" viewBox="0 0 64 64">
  <!-- background -->
  <rect width="64" height="64" fill="#2A2440"/>
  <!-- antenna -->
  <circle cx="32" cy="7" r="3.5" fill="#E89A6A"/>
  <rect x="30" y="10" width="4" height="7" rx="2" fill="#E89A6A"/>
  <!-- head -->
  <rect x="12" y="17" width="40" height="31" rx="7" fill="#E89A6A"/>
  <!-- ears -->
  <rect x="4" y="25" width="6" height="14" rx="3" fill="#E89A6A"/>
  <rect x="54" y="25" width="6" height="14" rx="3" fill="#E89A6A"/>
  <!-- question mark as filled shape -->
  <path d="M25 28c0-5.5 3.5-9 7-9s7 3.5 7 9c0 4-3 6-5 7.5-1.2 1-1.5 1.8-1.5 3h-5c0-3 1-4.5 3-6 2-1.5 3.5-2.8 3.5-4.5 0-2-1.2-3.5-2-3.5s-2 1.5-2 3.5h-5z" fill="#2A2440"/>
  <!-- question mark dot -->
  <circle cx="31.5" cy="44" r="3" fill="#2A2440"/>
  <!-- body -->
  <rect x="17" y="51" width="30" height="8" rx="4" fill="#E89A6A"/>
</svg>
